<mxfile host="app.diagrams.net" modified="2024-10-21T14:08:24.409Z" agent="Mozilla/5.0 (Windows NT 10.0; Win64; x64) AppleWebKit/537.36 (KHTML, like Gecko) Chrome/129.0.0.0 Safari/537.36" version="24.3.1" etag="IOyB3y4HfgN7VLn4cUlW" type="github">
  <diagram name="Page-1" id="Lb8H4rVhDNsZiXwEESoQ">
    <mxGraphModel>
      <root>
        <mxCell id="0" />
        <mxCell id="1" parent="0" />
      </root>
    </mxGraphModel>
  </diagram>
</mxfile>
